M48
; DRILL file {KiCad 8.0.8} date 2025-02-08T23:29:34-0500
; FORMAT={-:-/ absolute / inch / decimal}
; #@! TF.CreationDate,2025-02-08T23:29:34-05:00
; #@! TF.GenerationSoftware,Kicad,Pcbnew,8.0.8
; #@! TF.FileFunction,Plated,1,2,PTH
FMAT,2
INCH
; #@! TA.AperFunction,Plated,PTH,ViaDrill
T1C0.0118
; #@! TA.AperFunction,Plated,PTH,ComponentDrill
T2C0.0157
; #@! TA.AperFunction,Plated,PTH,ComponentDrill
T3C0.0276
; #@! TA.AperFunction,Plated,PTH,ComponentDrill
T4C0.0295
; #@! TA.AperFunction,Plated,PTH,ComponentDrill
T5C0.0315
; #@! TA.AperFunction,Plated,PTH,ComponentDrill
T6C0.0354
; #@! TA.AperFunction,Plated,PTH,ComponentDrill
T7C0.0394
; #@! TA.AperFunction,Plated,PTH,ComponentDrill
T8C0.0433
; #@! TA.AperFunction,Plated,PTH,ComponentDrill
T9C0.0531
; #@! TA.AperFunction,Plated,PTH,ComponentDrill
T10C0.0591
; #@! TA.AperFunction,Plated,PTH,ComponentDrill
T11C0.0945
%
G90
G05
T1
X2.2531Y-2.0748
X2.3616Y-3.3171
X2.4571Y-2.2252
X2.5417Y-2.0
X2.5982Y-2.2758
X2.6988Y-1.3264
X2.7736Y-3.3028
X2.8827Y-4.1193
X2.9047Y-2.011
X2.9417Y-4.0843
X3.0091Y-2.0154
X3.0469Y-3.1516
X3.1244Y-2.3354
X3.2366Y-2.0024
X3.2669Y-3.3697
X3.2768Y-2.4197
X3.3484Y-2.6756
X3.398Y-1.7541
X3.476Y-2.0787
X3.5051Y-1.3689
X3.5079Y-4.0917
X3.6354Y-2.6626
X3.9559Y-1.6008
X4.0331Y-2.6335
X4.0862Y-3.5291
X4.1925Y-2.0866
X4.2691Y-1.4856
X4.3626Y-3.4807
X4.4287Y-3.5469
X4.6181Y-2.4642
X4.6437Y-1.4119
X4.7114Y-2.2414
X4.7626Y-3.4461
X4.8339Y-2.026
X4.8681Y-1.8098
X4.8917Y-1.9047
X5.0366Y-1.7854
X5.0539Y-3.3303
X5.0839Y-2.4488
X5.1083Y-1.7205
X5.248Y-2.6996
X5.3098Y-2.2972
X5.4Y-2.6839
X5.6016Y-2.3075
T3
X2.4417Y-2.0914
X2.4417Y-2.3914
X2.5877Y-2.0914
X2.5877Y-2.3914
X2.7662Y-1.676
X2.7662Y-1.8171
X3.0662Y-1.676
X3.0662Y-1.8171
X3.4398Y-1.676
X3.4398Y-1.8171
X3.5827Y-2.0914
X3.5827Y-2.3914
X3.7287Y-2.0914
X3.7287Y-2.3914
X3.7398Y-1.676
X3.7398Y-1.8171
X4.0324Y-1.676
X4.0324Y-1.976
X4.4416Y-2.0914
X4.4416Y-2.3914
X4.5876Y-2.0914
X4.5876Y-2.3914
X4.7336Y-2.0914
X4.7336Y-2.3914
X4.8205Y-1.8886
X5.1205Y-1.8886
T4
X2.7999Y-2.1914
X2.7999Y-2.2414
X2.7999Y-2.2914
X3.2671Y-1.701
X3.2671Y-1.751
X3.2671Y-1.801
T5
X2.176Y-1.751
X2.176Y-2.2414
X2.2744Y-1.751
X2.2744Y-2.2414
X2.4344Y-1.8171
X2.6313Y-1.8171
X3.0014Y-2.2414
X3.0998Y-2.2414
X3.273Y-2.1429
X3.273Y-2.3398
X3.4308Y-2.1429
X3.4308Y-2.3398
X3.8806Y-1.7555
X3.8806Y-1.9524
X3.896Y-2.2414
X3.9944Y-2.2414
X4.1794Y-2.2414
X4.1861Y-1.6772
X4.1861Y-1.9772
X4.2778Y-2.2414
X4.3596Y-1.6768
X4.3596Y-1.9768
X4.4596Y-1.6768
X4.4596Y-1.9768
X4.5596Y-1.6768
X4.5596Y-1.9768
X4.6596Y-1.6768
X4.6596Y-1.9768
X4.8875Y-2.0929
X4.8875Y-2.3929
X5.0473Y-2.1457
X5.0473Y-2.3425
T6
X3.1075Y-1.2232
X3.1862Y-1.2232
X3.265Y-1.2232
X5.2622Y-1.9547
X5.2622Y-2.1909
X5.3606Y-1.9547
X5.3606Y-2.1909
X5.4591Y-1.9547
X5.4591Y-2.1909
T7
X2.176Y-1.941
X2.176Y-2.541
X2.276Y-1.941
X2.276Y-2.541
X2.376Y-1.941
X2.376Y-2.541
X2.476Y-1.941
X2.476Y-2.541
X2.5063Y-3.2867
X2.5063Y-4.2054
X2.576Y-1.941
X2.576Y-2.541
X2.6047Y-3.2867
X2.6047Y-4.2054
X2.676Y-1.941
X2.676Y-2.541
X2.7031Y-3.2867
X2.7031Y-4.2054
X2.776Y-1.941
X2.776Y-2.541
X2.876Y-1.941
X2.876Y-2.541
X2.976Y-1.941
X2.976Y-2.541
X3.076Y-1.941
X3.076Y-2.541
X3.176Y-1.941
X3.176Y-2.541
X3.276Y-1.941
X3.276Y-2.541
X3.376Y-1.941
X3.376Y-2.541
X3.4249Y-3.2867
X3.4249Y-4.2054
X3.476Y-1.941
X3.476Y-2.541
X3.5234Y-3.2867
X3.5234Y-4.2054
X3.576Y-1.941
X3.576Y-2.541
X3.6218Y-3.2867
X3.6218Y-4.2054
X4.3436Y-3.2867
X4.3436Y-4.2054
X4.442Y-3.2867
X4.442Y-4.2054
X4.5404Y-3.2867
X4.5404Y-4.2054
X5.2622Y-3.2867
X5.2622Y-3.3852
X5.2622Y-4.2054
X5.3606Y-3.2867
X5.3606Y-3.3852
X5.3606Y-4.2054
X5.4591Y-3.2867
X5.4591Y-3.3852
X5.4591Y-4.2054
T9
X4.8842Y-1.5986
X4.9826Y-1.697
X5.081Y-1.2049
X5.1794Y-1.5986
X5.2779Y-1.2049
X5.3763Y-1.697
X5.4747Y-1.5986
T10
X3.0248Y-1.2232
X3.3476Y-1.2232
T11
X4.8842Y-1.4018
X5.4747Y-1.4018
T2
G00X3.5859Y-1.487
M15
G01X3.5859Y-1.5264
M16
G05
G00X3.7631Y-1.3098
M15
G01X3.8025Y-1.3098
M16
G05
G00X3.9796Y-1.5264
M15
G01X3.9796Y-1.487
M16
G05
G00X4.2154Y-1.487
M15
G01X4.2154Y-1.5264
M16
G05
G00X4.3925Y-1.3098
M15
G01X4.4319Y-1.3098
M16
G05
G00X4.6091Y-1.5264
M15
G01X4.6091Y-1.487
M16
G05
T7
G00X2.6206Y-1.3689
M15
G01X2.5418Y-1.3689
M16
G05
G00X2.6206Y-1.6051
M15
G01X2.5418Y-1.6051
M16
G05
G00X2.7662Y-1.4476
M15
G01X2.7662Y-1.5264
M16
G05
T8
G00X2.4157Y-3.0052
M15
G01X2.4157Y-2.9777
M16
G05
G00X2.4157Y-3.9239
M15
G01X2.4157Y-3.8963
M16
G05
G00X2.7937Y-3.0052
M15
G01X2.7937Y-2.9777
M16
G05
G00X2.7937Y-3.9239
M15
G01X2.7937Y-3.8963
M16
G05
G00X3.3344Y-3.0052
M15
G01X3.3344Y-2.9777
M16
G05
G00X3.3344Y-3.9239
M15
G01X3.3344Y-3.8963
M16
G05
G00X3.7123Y-3.0052
M15
G01X3.7123Y-2.9777
M16
G05
G00X3.7123Y-3.9239
M15
G01X3.7123Y-3.8963
M16
G05
G00X4.253Y-3.0052
M15
G01X4.253Y-2.9777
M16
G05
G00X4.253Y-3.9239
M15
G01X4.253Y-3.8963
M16
G05
G00X4.631Y-3.0052
M15
G01X4.631Y-2.9777
M16
G05
G00X4.631Y-3.9239
M15
G01X4.631Y-3.8963
M16
G05
G00X5.1717Y-3.9239
M15
G01X5.1717Y-3.8963
M16
G05
G00X5.1736Y-3.0052
M15
G01X5.1736Y-2.9777
M16
G05
G00X5.5476Y-3.0052
M15
G01X5.5476Y-2.9777
M16
G05
G00X5.5496Y-3.9239
M15
G01X5.5496Y-3.8963
M16
G05
M30
