%TF.GenerationSoftware,KiCad,Pcbnew,8.0.8*%
%TF.CreationDate,2025-02-08T23:29:31-05:00*%
%TF.ProjectId,stringy,73747269-6e67-4792-9e6b-696361645f70,rev?*%
%TF.SameCoordinates,Original*%
%TF.FileFunction,Soldermask,Top*%
%TF.FilePolarity,Negative*%
%FSLAX46Y46*%
G04 Gerber Fmt 4.6, Leading zero omitted, Abs format (unit mm)*
G04 Created by KiCad (PCBNEW 8.0.8) date 2025-02-08 23:29:31*
%MOMM*%
%LPD*%
G01*
G04 APERTURE LIST*
G04 Aperture macros list*
%AMRoundRect*
0 Rectangle with rounded corners*
0 $1 Rounding radius*
0 $2 $3 $4 $5 $6 $7 $8 $9 X,Y pos of 4 corners*
0 Add a 4 corners polygon primitive as box body*
4,1,4,$2,$3,$4,$5,$6,$7,$8,$9,$2,$3,0*
0 Add four circle primitives for the rounded corners*
1,1,$1+$1,$2,$3*
1,1,$1+$1,$4,$5*
1,1,$1+$1,$6,$7*
1,1,$1+$1,$8,$9*
0 Add four rect primitives between the rounded corners*
20,1,$1+$1,$2,$3,$4,$5,0*
20,1,$1+$1,$4,$5,$6,$7,0*
20,1,$1+$1,$6,$7,$8,$9,0*
20,1,$1+$1,$8,$9,$2,$3,0*%
G04 Aperture macros list end*
%ADD10C,1.400000*%
%ADD11O,1.400000X1.400000*%
%ADD12O,2.720000X3.240000*%
%ADD13R,1.800000X1.800000*%
%ADD14C,1.800000*%
%ADD15C,1.600000*%
%ADD16C,3.200000*%
%ADD17R,1.600000X1.600000*%
%ADD18O,1.600000X1.600000*%
%ADD19R,1.500000X1.050000*%
%ADD20O,1.500000X1.050000*%
%ADD21C,1.200000*%
%ADD22O,1.200000X2.200000*%
%ADD23O,2.200000X1.200000*%
%ADD24C,3.500000*%
%ADD25C,2.500000*%
%ADD26R,3.500000X3.500000*%
%ADD27RoundRect,0.750000X-1.000000X0.750000X-1.000000X-0.750000X1.000000X-0.750000X1.000000X0.750000X0*%
%ADD28RoundRect,0.875000X-0.875000X0.875000X-0.875000X-0.875000X0.875000X-0.875000X0.875000X0.875000X0*%
%ADD29O,2.200000X3.500000*%
%ADD30R,1.500000X2.500000*%
%ADD31O,1.500000X2.500000*%
G04 APERTURE END LIST*
D10*
%TO.C,R11*%
X65727387Y-60740832D03*
D11*
X65727387Y-53120832D03*
%TD*%
D12*
%TO.C,RV4*%
X84693333Y-75983334D03*
X94293333Y-75983334D03*
D13*
X86993333Y-83483334D03*
D14*
X89493333Y-83483334D03*
X91993333Y-83483334D03*
%TD*%
D15*
%TO.C,C4*%
X66835018Y-46155000D03*
X61835018Y-46155000D03*
%TD*%
D13*
%TO.C,SW1*%
X138660000Y-55650000D03*
D14*
X136160000Y-55650000D03*
X133660000Y-55650000D03*
X138660000Y-49650000D03*
X136160000Y-49650000D03*
X133660000Y-49650000D03*
%TD*%
D16*
%TO.C,H2*%
X147960000Y-31970000D03*
%TD*%
D10*
%TO.C,R8*%
X94990751Y-42570000D03*
D11*
X87370751Y-42570000D03*
%TD*%
D17*
%TO.C,D2*%
X106327996Y-42600000D03*
D18*
X106327996Y-50220000D03*
%TD*%
D12*
%TO.C,RV1*%
X108026666Y-75983334D03*
X117626666Y-75983334D03*
D13*
X110326666Y-83483334D03*
D14*
X112826666Y-83483334D03*
X115326666Y-83483334D03*
%TD*%
D12*
%TO.C,RV6*%
X131410000Y-75983334D03*
X140910000Y-75983334D03*
D13*
X133660000Y-83483334D03*
D14*
X136160000Y-83483334D03*
X138660000Y-83483334D03*
X133660000Y-85983334D03*
X136160000Y-85983334D03*
X138660000Y-85983334D03*
%TD*%
D12*
%TO.C,RV8*%
X108026666Y-99316668D03*
X117626666Y-99316668D03*
D13*
X110326666Y-106816668D03*
D14*
X112826666Y-106816668D03*
X115326666Y-106816668D03*
%TD*%
D10*
%TO.C,R7*%
X77880262Y-46155000D03*
D11*
X70260262Y-46155000D03*
%TD*%
D19*
%TO.C,Q1*%
X82985506Y-45745001D03*
D20*
X82985506Y-44475001D03*
X82985506Y-43205001D03*
%TD*%
D10*
%TO.C,R10*%
X62018580Y-60740832D03*
D11*
X62018580Y-53120832D03*
%TD*%
D10*
%TO.C,R12*%
X112815963Y-60740832D03*
D11*
X112815963Y-53120832D03*
%TD*%
D17*
%TO.C,C2*%
X98958577Y-56930832D03*
D15*
X101458577Y-56930832D03*
%TD*%
D10*
%TO.C,R1*%
X116524770Y-60740832D03*
D11*
X116524770Y-53120832D03*
%TD*%
D10*
%TO.C,R4*%
X102421996Y-50190000D03*
D11*
X102421996Y-42570000D03*
%TD*%
D12*
%TO.C,RV5*%
X61360000Y-75983334D03*
X70960000Y-75983334D03*
D13*
X63660000Y-83483334D03*
D14*
X66160000Y-83483334D03*
X68660000Y-83483334D03*
%TD*%
D17*
%TO.C,C8*%
X78734999Y-56930832D03*
D15*
X76234999Y-56930832D03*
%TD*%
D16*
%TO.C,H1*%
X54360000Y-31970000D03*
%TD*%
D17*
%TO.C,C3*%
X57770000Y-44475000D03*
D15*
X55270000Y-44475000D03*
%TD*%
D17*
%TO.C,C10*%
X106157157Y-56930832D03*
D15*
X108657157Y-56930832D03*
%TD*%
D10*
%TO.C,R5*%
X77880262Y-42570000D03*
D11*
X70260262Y-42570000D03*
%TD*%
D10*
%TO.C,R3*%
X94709996Y-60740832D03*
D11*
X94709996Y-53120832D03*
%TD*%
D12*
%TO.C,RV3*%
X61360000Y-99316668D03*
X70960000Y-99316668D03*
D13*
X63660000Y-106816668D03*
D14*
X66160000Y-106816668D03*
X68660000Y-106816668D03*
%TD*%
D16*
%TO.C,H4*%
X147960000Y-107380000D03*
%TD*%
D15*
%TO.C,C1*%
X98565996Y-49590000D03*
X98565996Y-44590000D03*
%TD*%
D17*
%TO.C,D1*%
X124142383Y-53160000D03*
D18*
X124142383Y-60780000D03*
%TD*%
D15*
%TO.C,C6*%
X87142383Y-54430832D03*
X87142383Y-59430832D03*
%TD*%
D12*
%TO.C,RV7*%
X131360000Y-99316668D03*
X140960000Y-99316668D03*
D13*
X133660000Y-106816668D03*
D14*
X136160000Y-106816668D03*
X138660000Y-106816668D03*
%TD*%
D16*
%TO.C,H3*%
X54360000Y-107380000D03*
%TD*%
D12*
%TO.C,RV2*%
X84693333Y-99316668D03*
X94293333Y-99316668D03*
D13*
X86993333Y-106816668D03*
D14*
X89493333Y-106816668D03*
X91993333Y-106816668D03*
%TD*%
D19*
%TO.C,Q2*%
X71116193Y-58200833D03*
D20*
X71116193Y-56930833D03*
X71116193Y-55660833D03*
%TD*%
D10*
%TO.C,R13*%
X120233577Y-60740832D03*
D11*
X120233577Y-53120832D03*
%TD*%
D17*
%TO.C,C9*%
X57770000Y-56930832D03*
D15*
X55270000Y-56930832D03*
%TD*%
%TO.C,C7*%
X83133578Y-59430832D03*
X83133578Y-54430832D03*
%TD*%
%TO.C,C5*%
X128201188Y-59500000D03*
X128201188Y-54500000D03*
%TD*%
D10*
%TO.C,R9*%
X91001189Y-53120832D03*
D11*
X91001189Y-60740832D03*
%TD*%
D10*
%TO.C,R6*%
X87370751Y-46155000D03*
D11*
X94990751Y-46155000D03*
%TD*%
D17*
%TO.C,U1*%
X110733996Y-50210000D03*
D18*
X113273996Y-50210000D03*
X115813996Y-50210000D03*
X118353996Y-50210000D03*
X118353996Y-42590000D03*
X115813996Y-42590000D03*
X113273996Y-42590000D03*
X110733996Y-42590000D03*
%TD*%
D10*
%TO.C,R2*%
X122440000Y-47970000D03*
D11*
X130060000Y-47970000D03*
%TD*%
D17*
%TO.C,A1*%
X90830000Y-64540832D03*
D18*
X88290000Y-64540832D03*
X85750000Y-64540832D03*
X83210000Y-64540832D03*
X80670000Y-64540832D03*
X78130000Y-64540832D03*
X75590000Y-64540832D03*
X73050000Y-64540832D03*
X70510000Y-64540832D03*
X67970000Y-64540832D03*
X65430000Y-64540832D03*
X62890000Y-64540832D03*
X60350000Y-64540832D03*
X57810000Y-64540832D03*
X55270000Y-64540832D03*
X55270000Y-49300832D03*
X57810000Y-49300832D03*
X60350000Y-49300832D03*
X62890000Y-49300832D03*
X65430000Y-49300832D03*
X67970000Y-49300832D03*
X70510000Y-49300832D03*
X73050000Y-49300832D03*
X75590000Y-49300832D03*
X78130000Y-49300832D03*
X80670000Y-49300832D03*
X83210000Y-49300832D03*
X85750000Y-49300832D03*
X88290000Y-49300832D03*
X90830000Y-49300832D03*
%TD*%
D21*
%TO.C,J4*%
X107070000Y-30770000D03*
X107070000Y-33270000D03*
X112070000Y-38270000D03*
X117070000Y-30770000D03*
X117070000Y-33270000D03*
D22*
X107070000Y-38270000D03*
D23*
X112070000Y-33270000D03*
D22*
X117070000Y-38270000D03*
%TD*%
D24*
%TO.C,J1*%
X139057500Y-35605000D03*
X124057500Y-35605000D03*
D25*
X139057500Y-40605000D03*
X131557500Y-40605000D03*
X124057500Y-40605000D03*
X136557500Y-43105000D03*
X126557500Y-43105000D03*
X134057500Y-30605000D03*
X129057500Y-30605000D03*
%TD*%
D26*
%TO.C,J2*%
X65562500Y-40770000D03*
D27*
X65562500Y-34770000D03*
D28*
X70262500Y-37770000D03*
%TD*%
D21*
%TO.C,J3*%
X91082500Y-30770000D03*
X91082500Y-33270000D03*
X96082500Y-38270000D03*
X101082500Y-30770000D03*
X101082500Y-33270000D03*
D22*
X91082500Y-38270000D03*
D23*
X96082500Y-33270000D03*
D22*
X101082500Y-38270000D03*
%TD*%
D29*
%TO.C,SW2*%
X76830000Y-31070000D03*
X85030000Y-31070000D03*
D30*
X78930000Y-31070000D03*
D31*
X80930000Y-31070000D03*
X82930000Y-31070000D03*
%TD*%
M02*
