%TF.GenerationSoftware,KiCad,Pcbnew,8.0.8*%
%TF.CreationDate,2025-02-08T23:29:31-05:00*%
%TF.ProjectId,stringy,73747269-6e67-4792-9e6b-696361645f70,rev?*%
%TF.SameCoordinates,Original*%
%TF.FileFunction,Profile,NP*%
%FSLAX46Y46*%
G04 Gerber Fmt 4.6, Leading zero omitted, Abs format (unit mm)*
G04 Created by KiCad (PCBNEW 8.0.8) date 2025-02-08 23:29:31*
%MOMM*%
%LPD*%
G01*
G04 APERTURE LIST*
%TA.AperFunction,Profile*%
%ADD10C,0.050000*%
%TD*%
%TA.AperFunction,Profile*%
%ADD11C,0.120000*%
%TD*%
G04 APERTURE END LIST*
D10*
X51160000Y-107380000D02*
X51160000Y-31970000D01*
X54360000Y-110580000D02*
G75*
G02*
X51160000Y-107380000I0J3200000D01*
G01*
X102582500Y-28770000D02*
X105570000Y-28770000D01*
X147960000Y-110580000D02*
X54360000Y-110580000D01*
X151160000Y-31970000D02*
X151160000Y-107380000D01*
X118570000Y-28770000D02*
X147960000Y-28770000D01*
X54360000Y-28770000D02*
X89582500Y-28770000D01*
X151160000Y-107380000D02*
G75*
G02*
X147960000Y-110580000I-3200000J0D01*
G01*
X147960000Y-28770000D02*
G75*
G02*
X151160000Y-31970000I0J-3200000D01*
G01*
X51160000Y-31970000D02*
G75*
G02*
X54360000Y-28770000I3200000J0D01*
G01*
D11*
%TO.C,J4*%
X105570000Y-28770000D02*
X109870000Y-28770000D01*
X109870000Y-28770000D02*
X109870000Y-29770000D01*
X110270000Y-30170000D02*
X113870000Y-30170000D01*
X114270000Y-28770000D02*
X114270000Y-29770000D01*
X118570000Y-28770000D02*
X114270000Y-28770000D01*
X110270000Y-30170000D02*
G75*
G02*
X109870000Y-29770000I2J400002D01*
G01*
X114270000Y-29770000D02*
G75*
G02*
X113870000Y-30170000I-400000J0D01*
G01*
%TO.C,J3*%
X89582500Y-28770000D02*
X93882500Y-28770000D01*
X93882500Y-28770000D02*
X93882500Y-29770000D01*
X94282500Y-30170000D02*
X97882500Y-30170000D01*
X98282500Y-28770000D02*
X98282500Y-29770000D01*
X102582500Y-28770000D02*
X98282500Y-28770000D01*
X94282500Y-30170000D02*
G75*
G02*
X93882500Y-29770000I2J400002D01*
G01*
X98282500Y-29770000D02*
G75*
G02*
X97882500Y-30170000I-400000J0D01*
G01*
%TD*%
M02*
